<svg xmlns="http://www.w3.org/2000/svg" viewBox="0 0 400 400" fill="transparent" stroke="black">
  <path stroke-width="17.181818181818183" stroke="#0160FF" d="M200,17.181818181818187 L200.0,17.181818181818187  L203.18973093065688,17.260437370220956  L206.3767179432245,17.39468986411174  L209.55999106041423,17.584503842776826  L212.73858197583766,17.829790579779456  L215.91152434855096,18.130444479401802  L219.07785409683626,18.48634311821624  L222.2366096911311,18.89734729177121  L225.38683244601629,19.363301066374788  L228.52756681117407,19.884031835956364  L231.65786066122797,20.459350383987243  L234.7767655843765,21.08905095043781  L237.88333716973327,21.772911303748714  L240.97663529328617,22.510692817790186  L244.05572440238993,23.302140553784596  L247.11967379870433,24.1469833471634  L250.1675579194944,25.04493389932975  L253.1984566172063,25.995688874295894  L256.21145543723446,26.998929000163088  L259.20564589379745,28.054319175410654  L262.1801257438372,29.16150857995828  L265.1339992588613,30.320130790966203  L268.0663774946447,31.529803903334084  L270.9763785587104,32.79013065485981  L273.8631278755089,34.10069855601742  L276.725758449216,35.46108002431154  L279.5634111240705,36.870832523165404  L282.37523484217337,38.32949870529666  L285.1603868986714,39.8366065605357  L287.9180331942484,41.39166956803771  L290.6473484848485,42.994186852840755  L293.34751662855706,44.64364334671865  L296.01773082956504,46.339509953277684  L298.6571938791436,48.081243717244206  L301.26511839355834,49.86828799788884  L303.8407270488501,51.70007264653273  L306.3832528124147,53.57601418807829  L308.89193917131047,55.495516006507785  L311.36604035722723,57.457968534290245  L313.80482156804936,59.462749445636945  L316.2075591859466,61.50922385354386  L318.5735409919288,63.5967445105598  L320.9020663768007,65.72465201321538  L323.19244654845403,67.8922750100497  L325.4440047354359,70.09893041316838  L327.6560763867337,72.34392361326636  L329.8280093677165,74.62654869804857  L331.959164152177,76.94608867397888  L334.04891401041573,79.30181569128833  L336.09664519331335,81.6929912721722  L338.1017571123369,84.11886654210383  L340.0636625154267,86.57868246419343  L341.98178765871364,89.07167007651816  L343.8555724740154,91.59705073234964  L345.6844707320636,94.15403634320354  L347.46795020141417,96.74182962463573  L349.20549280299554,99.35962434470814  L350.89659476024775,102.00660557504742  L352.54076674481234,104.68194994441724  L354.1375340177275,107.38482589472665  L355.6864365660907,110.11439393939396  L357.1870292351483,112.86980692398629  L358.638881855774,115.65021028905393  L360.04157936730076,118.45474233507775  L361.39472193567076,121.2825344894479  L362.6979250668696,124.1327115753906  L363.95081971561365,127.00439208276049  L365.1530523892592,129.89668844061396  L366.30428524690444,132.80870729147986  L367.40419619365696,135.73954976724244  L368.45247897004117,138.6883117665516  L369.4488432365194,141.65408423367464  L370.3930146531057,144.63595343870375  L371.2847349540492,147.63300125903248  L372.12376201756786,150.64430546201527  L372.90986993061335,153.6689399887217  L373.64284904865116,156.70597523869992  L374.3225060504391,159.7544783556601  L374.9486639877918,162.81351351399096  L375.5211623303172,165.88214220602129  L376.03985700511555,168.95942352993805  L376.50462043143125,172.04441447827304  L376.91534155024874,175.13617022686935  L377.27192584882846,178.23374442423935  L377.5742953801758,181.3361894812253  L377.82238877744163,184.44255686087436  L378.01616126325223,187.55189736843894  L378.1555846539686,190.66326144141365  L378.240647358877,193.77569943952076  L378.2713543743135,196.88826193455506  L378.2477272727273,200.0  L378.16980418668925,203.10996550032647  L378.0376397878532,206.21721137988644  L377.85130526087903,209.32079195131294  L377.61088827232845,212.41976318333894  L377.31649293454706,215.51318298794746  L376.9682397645438,218.60011150676524  L376.5662656378863,221.67961139661347  L376.1107237376268,224.75074811412833  L375.6017834982781,227.81259019936516  L375.0396305448593,230.86420955830022  L374.4244666270321,233.90468174414414  L373.756509548352,236.93308623738207  L373.03599309065726,239.94850672445548  L372.2631669336222,242.95003137500146  L371.43829656950174,245.9367531175653  L370.56166321309763,248.90776991370356  L369.63356370697306,251.86218503039396  L368.65431042195155,254.79910731067076  L367.6242311529298,257.71765144240345  L366.54366901004073,260.61693822513735  L365.41298230520226,263.4960948349168  L364.23254443408905,266.3542550870097  L363.0027437535655,269.19055969645603  L361.7239834546206,272.0041565363602  L360.39668143084594,274.7942008938511  L359.02127014249913,277.5598557236322  L357.59819647619696,280.30029189904553  L356.1279216002841,283.014688460575  L354.6109208159229,285.7022328617134  L353.04768340395356,288.3621212121212  L351.4387124675724,290.99355851800226  L349.7845247708801,293.59575891962646  L348.0856505733507,296.1679459259272  L346.3426334602743,298.70935264610455  L344.5560301692283,301.21922201816386  L342.7264104126308,303.69680703432346  L340.85435669643516,306.14137096322236  L338.9404641350209,308.55218756886387  L336.9853402623404,310.9285413262284  L334.98960483938276,313.26972763349283  L332.95388965801294,315.57505302079267  L330.87883834125046,317.8438353554651  L328.76510614004997,320.07540404371383  L326.6133597266475,322.26910022863353  L324.42427698453787,324.42427698453787  L322.198546795149,326.54029950753227  L319.93686882128094,328.61654530227656  L317.6399532873761,330.6524043648815  L315.3085207566916,332.64727936188604  L312.94330190544247,334.60058580526356  L310.5450372939856,336.5117522234041  L308.1144771351185,338.3802203280248  L305.65238105956223,340.20544517695834  L303.1595178787052,341.98689533277263  L300.636665344678,343.72405301717515  L298.08460990783806,345.4164142611587  L295.5041464717362,347.0634890508427  L292.8960781456442,348.66480146897015  L290.26121599471855,350.21988983201845  L287.6003787878788,351.728306822885  L284.91439274347874,353.18961961910895  L282.20409127284967,354.6034100165938  L279.47031472179447,355.9692745487944  L276.71391011011383,357.2868246013352  L273.93573086924454,358.55568652202703  L271.1366365780908,359.7755017262517  L268.3174926971316,360.9459267976846  L265.47917030088513,362.0666335843276  L262.622545808813,363.13730928982545  L259.7485007147486,364.1576565600401  L256.8579213149314,365.12739356485974  L253.95169843473258,366.0462540752203  L251.0307271541552,366.9139875353182  L248.09590653219388,367.73035912999524  L245.14813933013932,368.4951498472786  L242.1883317339116,369.2081565360579  L239.2173930755092,369.86919195888663  L236.2362355536579,370.4780848398925  L233.2457739537464,371.0346799077871  L230.24692536713422,371.53883793396204  L227.24060890991808,371.9904357656657  L224.2277454412427,372.38936635425034  L221.20925728124305,372.735538778486  L218.1860679287037,373.0288782629358  L215.15910177852214,373.2693261913905  L212.12928383906234,373.45684011536014  L209.0975394494851,373.59139375762436  L206.06479399714124,373.67297701084203  L203.03197263511453,373.7015959312237  L200.0,373.6772727272727  L196.96979993000394,373.6000457435995  L193.9422951834516,373.4699694398182  L190.91840715778835,373.2871143645348  L187.89905560915977,373.05156712443636  L184.885158372656,372.76343034849594  L181.87763108330574,372.4228226473038  L178.87738689790416,372.0298785675438  L175.88533621775963,371.5847485416284  L172.90238641244372,371.08759883251264  L169.9294415446275,370.5386114737057  L166.9674020960882,369.93798420450196  L164.0171646949691,369.28593040045274  L161.07962184437523,368.5826789991048  L158.155661652387,367.8284744210289  L155.2461675635737,367.023576486167  L152.35201809208735,366.168260325525  L149.4740865564184,365.262816288242  L146.6132408158929,364.3075498440662  L143.7703430089905,363.3027814812702  L140.94624929356243,362.24884660003966  L138.14180958902776,361.14609540137076  L135.3578673206253,359.99489277151224  L132.59525916579838,358.79561816199083  L129.8548148027885,357.54866546525864  L127.13735666151378,356.25444288600346  L124.44369967680602,354.91337280816356  L121.77465104408223,353.5258916576906  L119.13100997752144,352.0924497611038  L116.51356747082157,350.61351119988353  L113.92310606060609,349.0895536607479  L111.36039959255254,347.5210682818634  L108.82621299031216,345.9085594950379  L106.32130202728916,344.25254486394556  L103.84641310134928,342.5535549184376  L101.40228301252239,340.81213298498926  L98.98963874376787,339.02883501333986  L96.60919724486574,337.2042293993781  L94.26166521949956,335.33889680433197  L91.94773891559258,333.4334299703178  L89.66810391896082,331.4884335323095  L87.42343495034356,329.5045238265857  L85.2143956658705,327.48232869571626  L83.04163846102638,325.42248729014966  L80.9058042781688,323.3256498664633  L78.80752241765794,321.19247758234206  L76.74741035265183,319.02364228834665  L74.72607354762374,316.8198263165408  L72.74410528065272,314.5817222660405  L70.80208646954117,312.3100327855555  L68.90058550180981,310.0054703529888  L67.04015806861861,307.66875705216466  L65.22134700266412,305.30062434675506  L63.44468212009869,302.9018128514741  L61.710680066518364,300.47307210061393  L60.01984416706381,298.01516031399177  L58.37266428067812,295.52884416038427  L56.769616658562455,293.01489851851983  L55.211163806872094,290.4741062357056  L53.6977543536905,287.90725788416376  L52.229822920320686,285.3151515151515  L50.80778999693044,282.69859241094383  L49.432061822586434,280.05839283475325  L48.10303026971201,277.3953717786667  L46.82107273300028,274.7103547096756  L45.586552022815425,272.0041733138796  L44.399816263110324,269.2776652389421  L43.26119879389012,266.53167383487727  L42.17101807824926,263.76704789325015  L41.12957761400608,260.98464138486844  L40.13716584996095,258.1853131960488  L39.19405610679982,255.36992686353742  L38.30050650266503,252.5393503081689  L37.45675988341287,249.69445556734283  L36.663043757577384,246.83611852640303  L35.919570236056245,243.96521864900032  L35.22653597653536,241.08263870652314  L34.584122132665925,238.1892645066785  L33.99249430800674,235.2859846213067  L33.451802514743065,232.37369011351404  L32.962181137191465,229.4532742642065  L32.523748900099804,226.52563229810923  L32.136608841748085,223.59166110935473  L31.800848291856568,220.65225898672543  L31.5165388543042,217.7083253386327 " />
  <path stroke-width="5" stroke="#FFA001" d="M200,17.181818181818187 L200.0,17.181818181818187  L203.18973093065688,17.260437370220956 " />
  <path stroke-width="17.181818181818183" stroke="rgba(150, 10, 50, 0.5)" d="M200,36.363636363636374 L200.0,36.363636363636374  L202.85505503489927,36.43400659691582  L205.70765405161814,36.55417292660425  L208.55692884572133,36.724071067627165  L211.40201270835792,36.943621602985104  L214.24204068990142,37.21273001637158  L217.07614986290665,37.531286729383  L219.9034795843043,37.89916714330593  L222.7231717567525,38.31623168546727  L225.53437108906678,38.782325860130015  L228.3362253556491,39.29728030391695  L231.12788565483726,39.86091084574247  L233.9085066660964,40.473018571232075  L236.6772469059747,41.13338989160735  L239.43326898274583,41.84179661701259  L242.17573984966077,42.59799603425864  L244.90383105673294,43.401730988957496  L247.61671900098025,44.252729972020205  L250.31358517504827,45.15070721048909  L252.99361641413992,46.09536276267488  L255.65600514117702,47.086382617565846  L258.29994961011954,48.12343879847796  L260.92465414736967,49.20618947091069  L263.52932939118784,50.33427905457367  L266.11319252904826,51.50733833954817  L268.67546753286365,52.72498460654438  L271.2153853920074,53.98682175121718  L273.7321843440637,55.29244041249825  L276.2251101032365,56.64141810490517  L278.69341608634863,58.033319354782634  L281.1363636363636,59.46769584043429  L283.5532222433629,60.94408653609824  L285.9432697629125,62.46201785972147  L288.3057926317546,64.02100382448512  L290.6400860807583,65.62054619403281  L292.9454543450672,67.26013464135201  L295.22121087138066,68.93924691125852  L297.4666785223067,70.65734898643163  L299.681189777727,72.41389525694801  L301.8640869331123,74.20832869326031  L304.0147222947309,76.04008102256537  L306.1324583716916,77.90857290850704  L308.21666806476446,79.81321413415597  L310.26673485192305,81.75340378820957  L312.2820529705543,83.7285304543526  L314.26202759628075,85.73797240371925  L316.2060750183439,87.78109779039654  L318.11362281149604,89.85726484990651  L319.9841100043502,91.96582210060618  L321.8169872441392,94.1061085479413  L323.6117169578351,96.27745389149025  L325.36777350958135,98.47917873473305  L327.08464335439317,100.71059479748021  L328.76182518807946,102.97100513089477  L330.3988300933438,105.25970433504048  L331.99518168202167,107.57597877888827  L333.5504162334122,109.91910682271241  L335.06408282866533,112.28835904280723  L336.53574348118457,114.68299845845401  L337.9649732630081,117.10228076106812  L339.35136042713236,119.54545454545458  L340.6945065257419,122.0117615431006  L341.99402652431286,124.50043685743266  L343.24954891155716,127.01070920096467  L344.4607158051752,129.54180113426463  L345.627183053389,132.0929293066649  L346.7486203322251,134.66330469864192  L347.82471123852145,137.2521328657907  L348.8551533786315,139.85861418431813  L349.8396584528009,142.4819440979793  L350.7779523351935,145.12131336638134  L351.669775149545,147.775908314577  L352.5148813404228,150.44491108387209  L353.3130397400739,153.1274998837685  L354.06403363084144,155.82284924496642  L354.7676608031348,158.53013027334612  L355.4237336089369,161.24851090485322  L356.0320790108356,163.97715616120743  L356.59253862656647,166.71522840635689  L357.10496876905563,169.46188760359937  L357.5692404819532,172.21629157329116  L357.9852395706495,174.97759625106488  L358.3528666287657,177.7449559464768  L358.6720370601149,180.5175236020044  L358.9426810961295,183.29445105231503  L359.16474380874934,186.07488928372643  L359.3381851187737,188.85798869377925  L359.4629797996735,191.64289935084264  L359.5391174768665,194.4287712536735  L359.5666026224586,197.21475459084988  L359.5454545454545,200.0  L359.4757073774444,202.78365882674672  L359.3574100537721,205.5648833832897  L359.190626290195,208.34282720654562  L358.97543455504285,211.11664531576832 " />
  <path stroke-width="5" stroke="rgba(240, 100, 50, 0.5)" d="M200,36.363636363636374 L200.0,36.363636363636374  L202.85505503489927,36.43400659691582  L205.70765405161814,36.55417292660425  L208.55692884572133,36.724071067627165  L211.40201270835792,36.943621602985104  L214.24204068990142,37.21273001637158  L217.07614986290665,37.531286729383  L219.9034795843043,37.89916714330593  L222.7231717567525,38.31623168546727  L225.53437108906678,38.782325860130015  L228.3362253556491,39.29728030391695  L231.12788565483726,39.86091084574247  L233.9085066660964,40.473018571232075  L236.6772469059747,41.13338989160735  L239.43326898274583,41.84179661701259  L242.17573984966077,42.59799603425864  L244.90383105673294,43.401730988957496  L247.61671900098025,44.252729972020205  L250.31358517504827,45.15070721048909  L252.99361641413992,46.09536276267488  L255.65600514117702,47.086382617565846  L258.29994961011954,48.12343879847796  L260.92465414736967,49.20618947091069  L263.52932939118784,50.33427905457367  L266.11319252904826,51.50733833954817  L268.67546753286365,52.72498460654438  L271.2153853920074,53.98682175121718  L273.7321843440637,55.29244041249825  L276.2251101032365,56.64141810490517  L278.69341608634863,58.033319354782634  L281.1363636363636,59.46769584043429  L283.5532222433629,60.94408653609824  L285.9432697629125,62.46201785972147  L288.3057926317546,64.02100382448512  L290.6400860807583,65.62054619403281  L292.9454543450672,67.26013464135201  L295.22121087138066,68.93924691125852  L297.4666785223067,70.65734898643163  L299.681189777727,72.41389525694801  L301.8640869331123,74.20832869326031  L304.0147222947309,76.04008102256537  L306.1324583716916,77.90857290850704  L308.21666806476446,79.81321413415597  L310.26673485192305,81.75340378820957  L312.2820529705543,83.7285304543526  L314.26202759628075,85.73797240371925  L316.2060750183439,87.78109779039654  L318.11362281149604,89.85726484990651  L319.9841100043502,91.96582210060618  L321.8169872441392,94.1061085479413  L323.6117169578351,96.27745389149025  L325.36777350958135,98.47917873473305  L327.08464335439317,100.71059479748021  L328.76182518807946,102.97100513089477  L330.3988300933438,105.25970433504048  L331.99518168202167,107.57597877888827  L333.5504162334122,109.91910682271241  L335.06408282866533,112.28835904280723  L336.53574348118457,114.68299845845401  L337.9649732630081,117.10228076106812  L339.35136042713236,119.54545454545458  L340.6945065257419,122.0117615431006  L341.99402652431286,124.50043685743266  L343.24954891155716,127.01070920096467  L344.4607158051752,129.54180113426463  L345.627183053389,132.0929293066649  L346.7486203322251,134.66330469864192  L347.82471123852145,137.2521328657907  L348.8551533786315,139.85861418431813  L349.8396584528009,142.4819440979793  L350.7779523351935,145.12131336638134  L351.669775149545,147.775908314577  L352.5148813404228,150.44491108387209  L353.3130397400739,153.1274998837685  L354.06403363084144,155.82284924496642  L354.7676608031348,158.53013027334612  L355.4237336089369,161.24851090485322  L356.0320790108356,163.97715616120743  L356.59253862656647,166.71522840635689  L357.10496876905563,169.46188760359937  L357.5692404819532,172.21629157329116  L357.9852395706495,174.97759625106488  L358.3528666287657,177.7449559464768  L358.6720370601149,180.5175236020044  L358.9426810961295,183.29445105231503  L359.16474380874934,186.07488928372643 " />
  <text stroke="#0160FF" fill="#0160FF" text-anchor="middle" dominant-baseline="middle" font-size="100" font-family="Arial" x="50%" y="50%">
    30
  </text>
</svg>