<svg xmlns="http://www.w3.org/2000/svg" viewBox="0 0 100 100" fill="transparent" stroke="black">
  <path id="slimeBody" stroke="#0160FF" fill="#0160FFAA" d="M 5 65
      C  0,110 100,110 95,65
      C 90,40   60,45  55,15
      C 53,5    47,5   45,15
      C 40,45   10,40   5,65
    Z" />
  <path d="M 95,65 C 90,40 60,45 55,15" />
  <line stroke="cyan" opacity="0.6" x1="95" y1="65" x2="90" y2="40" />
  <circle fill="cyan" opacity="0.4" stroke="transparent" cx="90" cy="40" r="1" />
  <circle fill="blue" opacity="0.4" stroke="transparent" cx="95" cy="65" r="1" />
  <line stroke="lime" opacity="0.6" x1="60" y1="45" x2="55" y2="15" />
  <circle fill="lime" opacity="0.4" stroke="transparent" cx="60" cy="45" r="1" />
  <circle fill="green" opacity="0.4" stroke="transparent" cx="55" cy="15" r="1" />
  <path id="smile" stroke="red" stroke-width="7" stroke-linecap="round" d="M 25,75 C 30,90 70,90 75,75" />
  <circle stroke="transparent" fill="white" cx="37" cy="60" r="8" />
  <circle stroke="transparent" fill="black" cx="37" cy="60" r="2.5" />
  <circle stroke="transparent" fill="white" cx="63" cy="60" r="8" />
  <circle stroke="transparent" fill="black" cx="63" cy="60" r="2.5" />
</svg>